Wiz Khalifa - ft. Snoop Dogg_ Juicy J & T-PainBlack And Yellow [G-Mix]

Format                           : AVI
Format/Info                      : Audio Video Interleave
File size                        : 28.0 MiB
Duration                         : 4mn 49s
Overall bit rate                 : 813 Kbps
Writing application              : Lavf51.7.0

Video
ID                               : 0
Format                           : MPEG-4 Visual
Format profile                   : Simple@L1
Format settings, BVOP            : No
Format settings, QPel            : No
Format settings, GMC             : No warppoints
Format settings, Matrix          : Default (H.263)
Codec ID                         : DIVX
Codec ID/Info                    : Project Mayo
Codec ID/Hint                    : DivX 4
Duration                         : 4mn 48s
Bit rate                         : 674 Kbps
Width                            : 528 pixels
Height                           : 304 pixels
Display aspect ratio             : 16:9
Frame rate                       : 25.000 fps
Color space                      : YUV
Chroma subsampling               : 4:2:0
Bit depth                        : 8 bits
Scan type                        : Progressive
Compression mode                 : Lossy
Bits/(Pixel*Frame)               : 0.168
Stream size                      : 23.2 MiB (83%)
Writing library                  : Lavc51.28.0

Audio
ID                               : 1
Format                           : MPEG Audio
Format version                   : Version 1
Format profile                   : Layer 3
Mode                             : Joint stereo
Mode extension                   : MS Stereo
Codec ID                         : 55
Codec ID/Hint                    : MP3
Duration                         : 4mn 49s
Bit rate mode                    : Constant
Bit rate                         : 128 Kbps
Channel(s)                       : 2 channels
Sampling rate                    : 44.1 KHz
Compression mode                 : Lossy
Stream size                      : 4.41 MiB (16%)
Alignment                        : Aligned on interleaves
Interleave, duration             : 26 ms (0.65 video frame)
Interleave, preload duration     : 522 ms
Writing library                  : LAME3.96

